# xmcd CD database file
#
# Track frame offsets:
#	150
#	19312
#	39162
#	45837
#
# Disc length: 864 seconds
#
# Revision: 0
# Processed by: cddbd v1.5.1PL0 Copyright (c) Steve Scherf et al.
# Submitted via: CDex 1.51
#
DISCID=21035e04
DTITLE=永井真人 - Eじゃん-Do You Feel Like I Feel?
DYEAR=2000
DGENRE=Pop
TTITLE0=Eじゃん-Do You Feel Like I Feel?
TTITLE1=SEASON
TTITLE2=カムカムハッピー
TTITLE3=Eじゃん-Do You Feel Like I Feel?(インストゥルメンタル)
EXTD=YEAR: 2000
EXTT0=
EXTT1=
EXTT2=
EXTT3=
PLAYORDER=
